PathFileType	4	(X/Y/Z)	C:/Users/opensim2020/Desktop/walking_exp_matlab/subject01_walking14_straight_04.trc	
DataRate	CameraRate	NumFrames	NumMarkers	Units	OrigDataRate	OrigDataStartFrame	OrigNumFrames	
100.00	100.00	7	42	mm	100.00	2140	89	
Frame#	Time	LFHD			RFHD			LBHD			RBHD			C7			T10			CLAV			STRN			RBAK			LSHO			LUPA			LELB			LFRM			LWRA			LWRB			LFIN			RSHO			RUPA			RELB			RFRM			RWRA			RWRB			RFIN			LASI			RASI			LPSI			RPSI			LTHI			LKNE			LTIB			LANK			LHEE			LTOE			RTHI			RKNE			RTIB			RANK			RHEE			RTOE			*39			*40			*41			
		X1	Y1	Z1	X2	Y2	Z2	X3	Y3	Z3	X4	Y4	Z4	X5	Y5	Z5	X6	Y6	Z6	X7	Y7	Z7	X8	Y8	Z8	X9	Y9	Z9	X10	Y10	Z10	X11	Y11	Z11	X12	Y12	Z12	X13	Y13	Z13	X14	Y14	Z14	X15	Y15	Z15	X16	Y16	Z16	X17	Y17	Z17	X18	Y18	Z18	X19	Y19	Z19	X20	Y20	Z20	X21	Y21	Z21	X22	Y22	Z22	X23	Y23	Z23	X24	Y24	Z24	X25	Y25	Z25	X26	Y26	Z26	X27	Y27	Z27	X28	Y28	Z28	X29	Y29	Z29	X30	Y30	Z30	X31	Y31	Z31	X32	Y32	Z32	X33	Y33	Z33	X34	Y34	Z34	X35	Y35	Z35	X36	Y36	Z36	X37	Y37	Z37	X38	Y38	Z38	X39	Y39	Z39	X40	Y40	Z40	X41	Y41	Z41	X42	Y42	Z42	

67	0.660	-1012.48663	-224.33635	1638.67468	-1110.51990	-281.30182	1646.13464	-1070.16858	-117.91869	1605.46277	-1174.14465	-176.25771	1612.61682	-1101.76599	-77.95567	1413.60242	-1117.98889	-35.12177	1118.25000	-1099.16882	-222.61539	1342.77246	-1105.78149	-263.94315	1189.90417	-1188.09363	-18.23926	1224.87952	-939.65881	-155.52946	1368.44080	-862.74054	-91.42272	1189.51404	-872.30243	-42.36431	1050.31763	-851.06323	-39.08142	936.86328	-870.25159	-67.88968	799.86108	-848.21100	-14.91921	816.49097	-838.91321	-28.35006	733.78766	-1247.38269	-158.97884	1388.84863	-1365.60889	-96.07233	1203.85291	-1392.52173	-113.54247	1078.28772	-1410.21460	-204.25107	989.59375	-1368.15381	-329.08289	939.46899	-1412.32983	-302.06793	915.49603	-1406.34583	-379.13043	881.35815	-1028.16406	-226.58803	916.92413	-1242.08972	-204.21133	912.18927	-1056.21326	-35.76037	923.72394	-1200.41858	-22.96199	930.12799	-980.49390	-285.38321	600.88824	-1009.53949	-311.79126	470.77026	-1005.35291	-283.91251	280.60260	-1071.01624	-270.38794	67.73251	-1126.68909	-227.33047	39.12608	-1060.93542	-415.47885	35.01833	-1313.94141	-102.97557	585.89844	-1306.77844	-81.68346	425.72269	-1309.35889	69.64197	334.58081	-1269.08228	226.24918	196.74063	-1217.88391	275.04391	220.46419	-1244.63647	208.17891	52.85287	-1091.78137	-265.08618	1679.83325	-3102.00171	1973.14087	1023.59216	-3140.69775	2012.45776	1021.99005 
68	0.670	-1009.17297	-237.98224	1638.47937	-1107.05884	-295.27277	1646.46143	-1067.54541	-131.92728	1605.50305	-1170.99146	-190.38202	1613.08582	-1099.82178	-90.93770	1413.90125	-1116.73767	-48.78574	1118.76770	-1097.06848	-235.98210	1343.28198	-1104.25940	-277.50436	1190.46045	-1186.99500	-31.81256	1225.75549	-937.50995	-168.95241	1368.47791	-861.08820	-107.31934	1188.52112	-870.54926	-60.11646	1048.46704	-849.65601	-59.19253	934.80585	-869.63062	-90.37505	798.45911	-847.03497	-37.27997	813.93817	-838.21069	-52.56691	731.43262	-1245.29883	-172.79680	1389.52588	-1363.30518	-108.78571	1204.62097	-1389.71301	-125.32130	1078.97363	-1408.36011	-213.65005	987.86163	-1367.58240	-337.42929	933.90765	-1411.47131	-309.15915	910.73602	-1406.66284	-385.06635	874.52252	-1025.87805	-239.89243	918.21771	-1240.17358	-218.65068	912.71790	-1055.82617	-49.19494	924.39539	-1200.04382	-37.06938	929.42810	-979.81647	-297.76279	600.14685	-1008.17999	-320.75296	468.29703	-1005.31055	-288.62244	279.47562	-1071.30188	-271.23981	67.76240	-1126.82776	-227.72554	39.52293	-1061.03870	-416.71219	34.00689	-1313.07349	-125.68378	584.10522	-1306.37378	-108.79651	423.43768	-1310.44592	44.26918	335.88391	-1269.48401	205.39461	204.91029	-1218.41028	253.31818	231.02087	-1247.71863	194.16336	60.12788	-1088.30237	-278.63034	1679.90259	-3102.07495	1973.18115	1023.51434	-3140.74048	2012.52356	1022.05890 
69	0.680	-1005.90179	-251.65939	1638.43250	-1103.59717	-309.35306	1646.71826	-1064.53760	-145.66792	1605.64368	-1168.12280	-204.64616	1613.73401	-1098.35266	-103.99672	1414.68030	-1115.60486	-62.27540	1119.48792	-1095.11133	-249.12173	1343.79333	-1102.82349	-290.61374	1191.11572	-1186.18652	-45.13915	1226.86108	-935.46844	-182.26476	1368.65613	-859.70117	-123.23650	1187.76538	-868.80426	-78.00047	1046.67102	-848.26501	-79.61323	932.95593	-868.90234	-113.56911	797.43457	-845.70093	-60.35241	811.59216	-837.57184	-77.71689	729.35712	-1243.36609	-186.33173	1390.40125	-1361.41370	-121.73053	1205.57385	-1386.76221	-137.11349	1079.71875	-1406.22852	-222.91751	986.08490	-1367.02271	-345.30392	928.04395	-1410.33826	-315.72189	905.60370	-1406.86340	-390.32928	867.12952	-1023.52002	-252.81119	919.38037	-1238.40076	-232.86282	913.54114	-1055.46375	-62.79559	924.91486	-1199.58435	-51.20758	928.76105	-978.55396	-307.39502	598.65259	-1006.42523	-328.23001	466.08640	-1005.28516	-292.40842	279.02841	-1071.59106	-272.09821	68.02631	-1126.81665	-227.93327	39.81931	-1061.26416	-417.46094	33.59210	-1311.89172	-148.88742	582.54010	-1305.57068	-136.16362	421.81708	-1310.74121	18.77824	337.80966	-1269.08936	183.76299	212.66666	-1216.60059	229.71397	239.82471	-1252.66760	177.08530	66.86833	-1084.94971	-292.20099	1680.10730	-3101.95190	1973.20850	1023.56140	-3140.59253	2012.56616	1022.15259 
70	0.690	-1002.79474	-265.56192	1638.29126	-1100.25903	-323.67670	1646.92395	-1062.00049	-159.65099	1606.13257	-1165.24036	-219.02032	1614.51721	-1096.03979	-117.35378	1415.66223	-1114.64111	-75.52341	1120.26270	-1093.32556	-262.12943	1344.43982	-1101.43567	-303.54041	1191.79480	-1185.41125	-58.27735	1228.11780	-933.63403	-195.37830	1369.00964	-858.46558	-138.93982	1187.26917	-867.19958	-96.49499	1044.98181	-846.79572	-100.25180	931.37592	-868.11084	-137.26532	796.78760	-844.55145	-83.86986	809.52448	-836.76227	-103.42420	727.92480	-1241.58215	-199.61177	1391.50757	-1359.85059	-134.89609	1206.69373	-1383.92383	-148.94586	1080.57410	-1404.54688	-231.71582	984.14325	-1366.52954	-352.70688	921.93958	-1409.47778	-321.83582	900.56976	-1406.93518	-394.88196	859.54736	-1021.17749	-265.72687	920.51917	-1236.76648	-247.06197	914.57025	-1054.69006	-75.62133	925.39240	-1198.92358	-65.08353	928.10077	-976.90106	-315.00806	597.03693	-1004.86224	-334.87878	464.50790	-1005.22644	-295.69241	278.87302	-1071.70300	-272.44586	68.45046	-1126.75342	-228.08580	40.22285	-1061.50916	-418.18607	33.07188	-1310.60266	-172.50841	581.48468	-1304.71265	-163.43784	421.06598	-1310.54919	-7.04293	340.10236	-1267.94824	161.01004	219.80243	-1213.21558	206.09908	245.91768	-1257.49939	156.69815	73.86690	-1081.33923	-306.17892	1680.21472	-3102.01758	1973.03430	1023.91211	-3140.68408	2012.53394	1022.15796 
71	0.700	-999.80792	-279.48190	1638.25732	-1097.02332	-338.13388	1647.08423	-1059.76990	-173.90346	1606.79504	-1162.46973	-233.50517	1615.42883	-1094.70874	-130.47147	1417.08630	-1113.66345	-88.53081	1121.15039	-1091.63818	-274.96576	1345.26563	-1100.13562	-316.33865	1192.58655	-1184.49561	-71.22869	1229.46814	-931.99475	-208.22655	1369.53662	-857.26141	-154.41310	1187.02246	-865.06097	-113.91577	1043.85474	-845.51080	-121.07215	930.09595	-866.90601	-161.96899	796.86877	-843.52338	-107.82717	807.82178	-835.87634	-129.89040	726.82324	-1240.00378	-212.66489	1392.71057	-1358.54395	-148.18137	1208.00977	-1381.05115	-160.87949	1081.35535	-1402.69592	-240.36400	982.25873	-1365.94824	-359.70432	915.76538	-1408.61719	-327.58371	895.59259	-1406.86084	-398.89600	851.68213	-1019.10120	-278.34329	921.61945	-1235.01794	-261.14514	915.91467	-1053.94849	-88.39754	925.90991	-1198.46997	-78.72346	928.08331	-975.44910	-321.51804	595.56622	-1003.70770	-341.09695	463.53897	-1004.90033	-298.69937	278.97333	-1071.88000	-273.07553	68.82401	-1126.86853	-228.35387	40.71478	-1061.54016	-418.68530	32.72849	-1309.51013	-196.27008	581.30487	-1303.67749	-190.60284	421.35498	-1309.86792	-33.35995	342.43326	-1266.44177	136.63971	225.54924	-1210.49084	181.46680	250.32430	-1261.39282	133.05586	79.13232	-1077.75403	-320.59308	1680.55383	-3102.03589	1973.08862	1024.07227	-3140.63403	2012.46667	1022.04572 
72	0.710	-997.01031	-293.53500	1638.41248	-1093.77466	-352.54944	1647.27832	-1057.31543	-187.72295	1607.82104	-1159.89551	-248.12720	1616.48022	-1092.70471	-143.58810	1418.39905	-1112.68042	-101.40123	1122.13965	-1090.02600	-287.70316	1346.23059	-1098.77332	-329.00946	1193.54419	-1183.33521	-84.08965	1230.80627	-930.47150	-220.85205	1370.21545	-856.32019	-169.85835	1186.98840	-864.02252	-131.70966	1042.76892	-844.25989	-141.90924	929.11145	-866.36749	-186.35049	796.87408	-842.28833	-132.35323	806.49579	-834.84851	-156.97197	726.44812	-1238.47424	-225.63536	1394.01331	-1357.32642	-161.48988	1209.35925	-1378.41968	-172.83958	1082.23853	-1400.82629	-248.81042	980.38715	-1365.43359	-366.32529	909.46277	-1407.92310	-332.95663	890.77423	-1406.64783	-402.33224	843.79376	-1017.13525	-290.85226	922.55249	-1233.36682	-275.17651	917.50781	-1053.29443	-101.09904	926.62646	-1197.93616	-92.35217	928.29376	-973.79736	-328.12167	594.33838	-1002.75757	-347.27478	463.01404	-1004.40137	-302.23602	278.87665	-1071.84204	-273.50543	69.07370	-1126.92053	-228.70151	41.18713	-1061.68127	-419.07947	32.61450	-1308.26514	-219.76302	582.15894	-1302.36963	-217.45787	422.60327	-1308.50757	-60.14637	344.42593	-1265.02283	110.85959	229.48743	-1208.53748	156.14839	253.39609	-1264.06689	106.86919	83.57282	-1074.33130	-335.35959	1680.84717	-3102.02930	1973.16479	1023.47009	-3140.82788	2012.50916	1021.95630 
73	0.720	-994.23346	-307.48373	1638.56946	-1090.63794	-367.01416	1647.44348	-1055.07678	-201.89120	1608.91125	-1157.39709	-262.83167	1617.64734	-1091.15723	-156.42732	1419.75244	-1111.71899	-114.06400	1123.28210	-1088.63037	-300.31018	1347.31934	-1097.40918	-341.57788	1194.58557	-1181.99133	-97.46486	1232.05042	-929.08661	-233.25133	1371.01477	-855.17334	-184.74469	1187.21643	-862.58734	-149.56470	1041.60999	-843.07159	-162.85518	928.39374	-865.46936	-211.22462	797.68341	-841.42694	-157.13205	805.52948	-833.62482	-184.33138	726.63544	-1237.33813	-238.47864	1395.39954	-1356.15894	-174.77602	1210.71375	-1375.75391	-185.02121	1082.93347	-1399.21960	-256.95352	978.49023	-1364.93274	-372.41681	903.18451	-1407.11475	-337.95691	885.94647	-1406.29443	-405.20801	835.97656	-1015.21252	-303.26572	923.45233	-1231.69080	-289.06216	919.28809	-1052.62073	-113.76148	927.48413	-1197.34082	-105.91835	928.89709	-972.53998	-334.80914	593.42780	-1001.89929	-353.64594	462.63660	-1003.56049	-306.16495	278.37198	-1071.77991	-273.83585	69.22103	-1126.54639	-228.60861	41.60286	-1061.61243	-419.12183	32.35238	-1306.90979	-242.81277	583.73138	-1300.91284	-244.04028	424.46872	-1306.89258	-87.10126	345.89023	-1263.74011	84.42522	231.97105	-1207.07813	130.95264	254.67657	-1265.60156	77.95163	86.81676	-1071.20972	-350.46515	1681.18408	-3101.99292	1973.02368	1023.37231	-3140.69995	2012.60767	1022.16852 
